<svg xmlns="http://www.w3.org/2000/svg" width="24" height="24" viewBox="0 0 24 24">
  <g id="noun_equity_2761878" transform="translate(-1 -1)">
    <g id="Group_249" data-name="Group 249" transform="translate(1 1)">
      <path id="Path_138" data-name="Path 138" d="M35.548,10.419a.775.775,0,0,1-.774-.774H34a1.547,1.547,0,0,0,1.161,1.493v.829h.774v-.774H37.1V9.645A1.55,1.55,0,0,0,35.548,8.1a.775.775,0,0,1-.774-.774V6.548h.774a.775.775,0,0,1,.774.774H37.1a1.547,1.547,0,0,0-1.161-1.493V5h-.774v.774H34V7.323a1.55,1.55,0,0,0,1.548,1.548.775.775,0,0,1,.774.774v.774Z" transform="translate(-21.226 -3.452)" fill="#4066ea"/>
      <path id="Path_139" data-name="Path 139" d="M21.9,5.645V24.226H20.355V14.161h-3.1V24.226h-.774V16.484H15.71V15.448L18.193,12a6.605,6.605,0,0,0,.947-2.7,5.032,5.032,0,1,0-7.7-.073L10.3,10.693a3.738,3.738,0,0,0-.7,3.1l.592,2.691h-.68v7.742H8.742V6.419h-3.1V24.226H4.1V10.29H1V25H25V5.645ZM3.323,24.226H1.774V11.065H3.323Zm14.71-9.29h1.548v9.29H18.032Zm-6.968-8.9a4.274,4.274,0,1,1,3.287,4.143,1.472,1.472,0,0,0-1.285-2.207h-.643L11.93,8.6A4.251,4.251,0,0,1,11.065,6.032Zm2.726,4.789a4.98,4.98,0,0,0,.957.206l-1.93,2.359H12.79a.927.927,0,0,1-.177-.547v-.454a.928.928,0,0,1,.274-.661Zm-3.431,2.8a2.966,2.966,0,0,1,.555-2.458L12.8,8.742h.264a.708.708,0,0,1,.5,1.209l-1.228,1.227a1.7,1.7,0,0,0-.5,1.208v.454a1.7,1.7,0,0,0,.5,1.209l.113.113h.731l2.551-3.118a5,5,0,0,0,2.432-.864,5.733,5.733,0,0,1-.615,1.39L14.935,15.2v1.286H10.989Zm-.069,5.181h.774v-.774H10.29v-.774H15.71v.774H11.839v.774H15.71v5.419H10.29ZM6.419,7.194H7.968V24.226H6.419ZM24.226,24.226H22.677V6.419h1.548Z" transform="translate(-1 -1)" fill="#4066ea"/>
      <rect id="Rectangle_75" data-name="Rectangle 75" width="0.774" height="0.774" transform="translate(17.032 4.645)" fill="#4066ea"/>
      <rect id="Rectangle_76" data-name="Rectangle 76" width="0.774" height="0.774" transform="translate(10.839 4.645)" fill="#4066ea"/>
    </g>
  </g>
</svg>
