<svg xmlns="http://www.w3.org/2000/svg" xmlns:xlink="http://www.w3.org/1999/xlink" version="1.1" x="0px" y="0px" viewBox="0 0 64 80" style="enable-background:new 0 0 64 64;" xml:space="preserve"><g><path d="M38,19c-1.103,0-2-0.897-2-2h-2c0,1.858,1.279,3.411,3,3.858V23h2v-2h3v-4c0-2.206-1.794-4-4-4c-1.103,0-2-0.897-2-2V9h2   c1.103,0,2,0.897,2,2h2c0-1.858-1.279-3.411-3-3.858V5h-2v2h-3v4c0,2.206,1.794,4,4,4c1.103,0,2,0.897,2,2v2H38z"/><path d="M55,13v48h-4V35h-8v26h-2V41h-2v-2.677l6.416-8.902c1.316-2.104,2.148-4.51,2.446-6.975C49.813,20.172,51,17.224,51,14   c0-7.168-5.832-13-13-13S25,6.832,25,14c0,3.026,1.061,5.934,2.977,8.258l-2.942,3.782C23.723,27.728,23,29.833,23,31.971   c0,0.699,0.076,1.397,0.226,2.076L24.756,41H23v20h-2V15h-8v46H9V25H1v38h62V13H55z M7,61H3V27h4V61z M45,37h4v24h-4V37z M27,14   c0-6.065,4.935-11,11-11s11,4.935,11,11s-4.935,11-11,11c-0.852,0-1.69-0.107-2.508-0.298C35.813,24.134,36,23.498,36,22.829   C36,20.717,34.282,19,32.172,19h-1.661l-1.275,1.639C27.792,18.734,27,16.41,27,14z M34.042,26.372   c0.805,0.258,1.63,0.437,2.471,0.533L31.526,33h-0.069C31.16,32.591,31,32.101,31,31.586v-1.172c0-0.645,0.251-1.251,0.707-1.707   L34.042,26.372z M25.179,33.617C25.061,33.079,25,32.526,25,31.971c0-1.695,0.573-3.365,1.613-4.703L31.489,21h0.683   C33.18,21,34,21.82,34,22.829c0,0.488-0.19,0.948-0.535,1.293l-3.172,3.171C29.459,28.126,29,29.234,29,30.414v1.172   c0,1.18,0.459,2.288,1.293,3.122L30.586,35h1.888l6.591-8.054c2.318-0.189,4.466-0.982,6.282-2.232   c-0.381,1.273-0.905,2.494-1.59,3.592L37,37.677V41H26.804L25.179,33.617z M25,47h2v-2h-2v-2h14v2H29v2h10v14H25V47z M15,17h4v44   h-4V17z M61,61h-4V15h4V61z"/><rect x="45" y="13" width="2" height="2"/><rect x="29" y="13" width="2" height="2"/></g><text x="0" y="79" fill="#000000" font-size="5px" font-weight="bold" font-family="'Helvetica Neue', Helvetica, Arial-Unicode, Arial, Sans-serif">Created by Eucalyp</text><text x="0" y="84" fill="#000000" font-size="5px" font-weight="bold" font-family="'Helvetica Neue', Helvetica, Arial-Unicode, Arial, Sans-serif">from the Noun Project</text></svg>