<svg xmlns="http://www.w3.org/2000/svg" width="43.015" height="43.002" viewBox="0 0 43.015 43.002">
  <g id="gold" transform="translate(-6.469 -15.499)">
    <g id="Group_74" data-name="Group 74" transform="translate(6.977 16.001)">
      <path id="Path_66" data-name="Path 66" d="M27.916,968.368a.592.592,0,0,0-.427.637v6.173a.5.5,0,1,0,.976,0V969a.706.706,0,0,0-.158-.479.426.426,0,0,0-.391-.158Zm-7.795,2.469a.493.493,0,0,0-.393.317.763.763,0,0,0,0,.59l1.952,4.938a.452.452,0,0,0,.664.28.71.71,0,0,0,.221-.839l-1.952-4.938a.48.48,0,0,0-.488-.347Zm15.65,0a.5.5,0,0,0-.427.347l-1.952,4.938a.71.71,0,0,0,.221.839.452.452,0,0,0,.664-.279l1.952-4.938a.761.761,0,0,0-.019-.623.468.468,0,0,0-.438-.284ZM24.957,979.5a.515.515,0,0,0-.351.328l-3.768,9.549H18.215a.4.4,0,0,0-.092,0,.517.517,0,0,0-.351.328L14,999.251H11.381a.441.441,0,0,0-.092,0,.517.517,0,0,0-.351.328l-3.9,9.876a.761.761,0,0,0,.016.614.474.474,0,0,0,.427.293H21.144a.318.318,0,0,0,.046,0H48.478a.474.474,0,0,0,.427-.293.761.761,0,0,0,.016-.614l-3.9-9.876a.484.484,0,0,0-.442-.328H41.949L38.182,989.7a.484.484,0,0,0-.442-.328H35.116l-3.768-9.549a.484.484,0,0,0-.442-.328H25.048a.383.383,0,0,0-.092,0Zm.4,1.234H30.6l3.417,8.642H21.937l3.417-8.642Zm-6.834,9.876h5.247l3.417,8.642H15.1l3.417-8.642Zm6.345,0h6.223l-3.112,7.851-3.112-7.851Zm7.322,0h5.247l3.417,8.642H28.77l3.417-8.642Zm-20.5,9.876h5.247l3.417,8.642H8.27l3.417-8.642Zm6.345,0h6.223l-3.112,7.851-3.112-7.851Zm7.322,0H30.6l3.417,8.642H21.937l3.417-8.642Zm6.345,0h6.223l-3.112,7.851-3.112-7.851Zm7.322,0h5.247l3.417,8.642H35.6l3.417-8.642Z" transform="translate(-6.977 -968.363)" fill="#4066ea" stroke="#4066ea" stroke-width="1"/>
    </g>
  </g>
</svg>
