<svg xmlns="http://www.w3.org/2000/svg" xmlns:xlink="http://www.w3.org/1999/xlink" version="1.1" x="0px" y="0px" viewBox="0 0 100 125" style="enable-background:new 0 0 100 100;" xml:space="preserve"><g><path d="M17.9,35.7c0.1,0,0.2,0,0.3,0h8c0.1,0,0.1-0.1,0.2,0c0.6-1.1,1.5-2.1,2.1-3.1c0.3-0.5,0.6-1.2,0.6-1.8   c-0.2-1.5-2.1-1.1-3.2-1c-1.4,0.1-2.9,0-4.1-0.8c-1-0.6-1.9-1.8-3.3-1.9c-1.3-0.1-2.6,1.1-3.1,2.2c-0.7,1.7,0,3.3,1.1,4.7   C17,34.5,17.5,35.1,17.9,35.7z"/><path d="M34.4,52.6c0,0,0,0,0-0.1c0-3.3-2.5-6.7-4.3-9.4c-0.9-1.4-1.9-2.7-2.9-4c-0.2-0.2-0.3-0.4-0.5-0.6   c-0.2,0.1-0.3,0.1-0.5,0.1h-8c-0.2,0-0.4,0-0.5-0.1c-2,2.5-7.7,10-7.7,14.1c0.1,3.1,1.7,8.8,12.2,8.8   C32.8,61.4,34.4,55.8,34.4,52.6z M18.6,54.8l-0.5-0.4l1.4-2.5l0.7,0.6c0.5,0.4,1.2,0.6,1.9,0.6c0.4,0,0.8-0.1,1-0.3   c0.2-0.1,0.3-0.3,0.3-0.5c0-0.4-0.5-0.8-1.4-1.2c-2.2-1-3.4-2.2-3.4-3.6c0-0.9,0.3-1.6,0.9-2.2c0.4-0.5,1-0.8,1.6-1v-1.8h2.8v1.8   c0.7,0.1,1.2,0.4,1.8,0.7l0.7,0.4L24.8,48l-0.7-0.6c-0.4-0.3-0.9-0.5-1.6-0.5c-0.3,0-0.6,0.1-0.8,0.2c-0.1,0.1-0.2,0.2-0.2,0.3   c0,0,0.1,0.4,1.6,1.1c1.1,0.5,1.9,1,2.4,1.5c0.5,0.6,0.8,1.4,0.8,2.2c0,0.8-0.3,1.6-0.9,2.2c-0.4,0.5-1,0.9-1.7,1.1v1.9h-2.9v-1.8   C20,55.6,19.2,55.3,18.6,54.8z"/><path d="M25.9,28.6c0.1,0,0.3,0,0.4,0c0.3,0,0.7-0.1,1.1-0.1c1.4,0,2.1,0.6,2.5,1.2c1.7-1.7,3.7-3.2,5.8-4.4   c6.6-3.8,14.3-4.8,21.7-2.9c5.1,1.4,9.6,4.1,13.2,7.8l-3.2,1.9l10.5,4.5l1.4-11.3l-3.6,2.1c-10.6-12-28.4-15.2-42.8-7   c-3.7,2.2-6.9,4.9-9.5,8.1c0.5,0.2,1.1,0.2,1.9,0.2C25.4,28.6,25.7,28.6,25.9,28.6z"/><path d="M18,36.4c-0.4,0-0.8,0.4-0.8,0.8c0,0.4,0.3,0.8,0.8,0.8h8.4c0.4,0,0.8-0.4,0.8-0.8c0-0.4-0.3-0.8-0.8-0.8H18z"/><path d="M74.2,38.6c-1.3-0.1-2.6,1.1-3.1,2.2c-0.7,1.7,0,3.3,1.1,4.7c0.3,0.4,0.8,1,1.2,1.7c0.1,0,0.2,0,0.3,0h8   c0.1,0,0.1-0.1,0.2-0.1c0.6-1.1,1.5-2.1,2.1-3.1c0.3-0.5,0.6-1.2,0.6-1.8c-0.2-1.5-2.1-1.1-3.2-1c-1.4,0.1-2.9,0-4.1-0.8   C76.4,39.8,75.5,38.6,74.2,38.6z"/><path d="M90,64c0-3.3-2.5-6.7-4.3-9.4c-0.9-1.4-1.9-2.7-2.9-4c-0.2-0.2-0.3-0.4-0.5-0.6c-0.2,0.1-0.3,0.1-0.5,0.1h-8   c-0.2,0-0.4-0.1-0.5-0.1c-2,2.5-7.7,10-7.7,14.1c0.1,3.1,1.7,8.7,12.2,8.7c10.6,0,12.2-5.6,12.2-8.8C90,64.1,90,64,90,64z M78.6,60   c1.1,0.5,1.9,1,2.4,1.5c0.5,0.6,0.8,1.4,0.8,2.2c0,0.8-0.3,1.6-0.9,2.2c-0.4,0.5-0.9,0.9-1.7,1.1v2h-2.8v-1.9   c-0.9-0.2-1.6-0.5-2.3-1l-0.5-0.4l1.4-2.5l0.7,0.6c0.5,0.4,1.2,0.6,1.9,0.6c0.4,0,0.8-0.1,1-0.3c0.2-0.1,0.3-0.3,0.3-0.5   c0-0.4-0.5-0.8-1.4-1.2c-2.2-1-3.4-2.2-3.4-3.6c0-0.9,0.3-1.6,0.9-2.2c0.4-0.5,1-0.8,1.6-1V54h2.7v1.7c0.7,0.1,1.3,0.4,1.9,0.7   l0.7,0.4l-1.6,2.6l-0.7-0.6c-0.4-0.3-0.9-0.5-1.6-0.5c-0.3,0-0.6,0.1-0.8,0.2c-0.1,0.1-0.2,0.2-0.2,0.3C77,58.9,77.1,59.3,78.6,60z   "/><path d="M64.3,74.7c-6.6,3.8-14.3,4.8-21.7,2.9c-5.1-1.4-9.6-4.1-13.2-7.8l3.3-1.9l-10.5-4.5l-1.4,11.3l3.5-2   c10.6,12,28.4,15.2,42.8,7c2.8-1.6,5.4-3.6,7.5-5.9c-2.7-0.3-4.7-1.1-6.2-2.1C67.2,72.9,65.8,73.9,64.3,74.7z"/><path d="M73.6,47.9c-0.4,0-0.8,0.4-0.8,0.8c0,0.4,0.3,0.8,0.8,0.8H82c0.4,0,0.8-0.4,0.8-0.8c0-0.4-0.3-0.8-0.8-0.8H73.6z"/></g><text x="0" y="115" fill="#000000" font-size="5px" font-weight="bold" font-family="'Helvetica Neue', Helvetica, Arial-Unicode, Arial, Sans-serif">Created by Musmellow</text><text x="0" y="120" fill="#000000" font-size="5px" font-weight="bold" font-family="'Helvetica Neue', Helvetica, Arial-Unicode, Arial, Sans-serif">from the Noun Project</text></svg>