<svg xmlns="http://www.w3.org/2000/svg" width="24" height="24" viewBox="0 0 24 24">
  <g id="ohers" transform="translate(-10 -15.847)">
    <g id="Group_251" data-name="Group 251" transform="translate(10 15.847)">
      <path id="Path_143" data-name="Path 143" d="M15.954,30.114h2.49c.03,0,.03-.035.06,0,.18-.386.45-.737.63-1.088a1.513,1.513,0,0,0,.18-.632c-.06-.526-.63-.386-.96-.351a1.712,1.712,0,0,1-1.23-.281c-.3-.211-.57-.632-.99-.667-.39-.035-.78.386-.93.772a1.817,1.817,0,0,0,.33,1.649A3.973,3.973,0,0,1,15.954,30.114Z" transform="translate(-13.584 -23.148)" fill="#4066ea"/>
      <path id="Path_144" data-name="Path 144" d="M17.32,43.447v-.035a7.321,7.321,0,0,0-1.29-3.3c-.27-.491-.57-.947-.87-1.4-.06-.07-.09-.14-.15-.211a.238.238,0,0,1-.15.035h-2.4c-.06,0-.12,0-.15-.035-.6.877-2.31,3.508-2.31,4.947.03,1.088.51,3.087,3.66,3.087C16.84,46.534,17.32,44.57,17.32,43.447Zm-4.74.772-.15-.14.42-.877.21.211a.836.836,0,0,0,.57.211.405.405,0,0,0,.3-.105.2.2,0,0,0,.09-.175c0-.14-.15-.281-.42-.421-.66-.351-1.02-.772-1.02-1.263a1.126,1.126,0,0,1,.27-.772,1,1,0,0,1,.48-.351V39.9h.84v.632a1.552,1.552,0,0,1,.54.246l.21.14-.48.912-.21-.211a.692.692,0,0,0-.48-.175.5.5,0,0,0-.24.07.191.191,0,0,0-.06.105s.03.14.48.386a2.479,2.479,0,0,1,.72.526,1.358,1.358,0,0,1,.24.772,1.191,1.191,0,0,1-.27.772,1.012,1.012,0,0,1-.51.386v.667h-.87V44.5A.962.962,0,0,1,12.58,44.219Z" transform="translate(-10 -30.552)" fill="#4066ea"/>
      <path id="Path_145" data-name="Path 145" d="M24.15,20.322h.12c.09,0,.21-.035.33-.035a.8.8,0,0,1,.75.421,8.592,8.592,0,0,1,1.74-1.544,7.566,7.566,0,0,1,6.51-1.017,8.569,8.569,0,0,1,3.96,2.737l-.96.667,3.15,1.579.42-3.965-1.08.737c-3.18-4.21-8.52-5.333-12.84-2.456a11.305,11.305,0,0,0-2.85,2.842,1.364,1.364,0,0,0,.57.07C24,20.322,24.09,20.322,24.15,20.322Z" transform="translate(-19.38 -15.847)" fill="#4066ea"/>
      <path id="Path_146" data-name="Path 146" d="M17.44,36.4a.283.283,0,0,0-.24.281.26.26,0,0,0,.24.281h2.52a.283.283,0,0,0,.24-.281.26.26,0,0,0-.24-.281Z" transform="translate(-15.04 -29.189)" fill="#4066ea"/>
      <path id="Path_147" data-name="Path 147" d="M71.834,38.6c-.39-.035-.78.386-.93.772a1.817,1.817,0,0,0,.33,1.649,5.568,5.568,0,0,1,.36.6h2.49c.03,0,.03-.035.06-.035.18-.386.45-.737.63-1.088a1.513,1.513,0,0,0,.18-.632c-.06-.526-.63-.386-.96-.351a1.712,1.712,0,0,1-1.23-.281C72.494,39.017,72.224,38.6,71.834,38.6Z" transform="translate(-52.574 -30.613)" fill="#4066ea"/>
      <path id="Path_148" data-name="Path 148" d="M72.92,54.912a7.321,7.321,0,0,0-1.29-3.3c-.27-.491-.57-.947-.87-1.4-.06-.07-.09-.14-.15-.211a.238.238,0,0,1-.15.035h-2.4A1.136,1.136,0,0,1,67.91,50c-.6.877-2.31,3.508-2.31,4.947.03,1.088.51,3.052,3.66,3.052,3.18,0,3.66-1.965,3.66-3.087Zm-3.42-1.4a2.479,2.479,0,0,1,.72.526,1.358,1.358,0,0,1,.24.772,1.191,1.191,0,0,1-.27.772.9.9,0,0,1-.51.386v.7h-.84V56a1.673,1.673,0,0,1-.69-.351l-.15-.14.42-.877.21.211a.836.836,0,0,0,.57.211.405.405,0,0,0,.3-.105.2.2,0,0,0,.09-.175c0-.14-.15-.281-.42-.421-.66-.351-1.02-.772-1.02-1.263a1.126,1.126,0,0,1,.27-.772,1,1,0,0,1,.48-.351V51.4h.81V52a1.7,1.7,0,0,1,.57.246l.21.14-.48.912-.21-.211a.692.692,0,0,0-.48-.175.5.5,0,0,0-.24.07.191.191,0,0,0-.06.105C69.02,53.123,69.05,53.263,69.5,53.508Z" transform="translate(-48.92 -38.018)" fill="#4066ea"/>
      <path id="Path_149" data-name="Path 149" d="M33.85,67.365a7.566,7.566,0,0,1-6.51,1.017,8.569,8.569,0,0,1-3.96-2.737l.99-.667L21.22,63.4l-.42,3.965,1.05-.7c3.18,4.21,8.52,5.333,12.84,2.456a9.709,9.709,0,0,0,2.25-2.07,3.734,3.734,0,0,1-1.86-.737A5.32,5.32,0,0,1,33.85,67.365Z" transform="translate(-17.56 -46.716)" fill="#4066ea"/>
      <path id="Path_150" data-name="Path 150" d="M73.04,47.9a.283.283,0,0,0-.24.281.26.26,0,0,0,.24.281h2.52a.283.283,0,0,0,.24-.281.26.26,0,0,0-.24-.281Z" transform="translate(-53.96 -36.654)" fill="#4066ea"/>
    </g>
  </g>
</svg>
