<svg xmlns="http://www.w3.org/2000/svg" viewBox="0 0 64 80" x="0px" y="0px"><g><path d="M37.649,10l.7-1.873a18.614,18.614,0,0,0-11.639-.359l.576,1.916A16.574,16.574,0,0,1,37.649,10Z"/><circle cx="22" cy="15" r="2"/><path d="M61.316,31.887a4.734,4.734,0,0,0-6.245-.978l-6.031,3.93A5.519,5.519,0,0,0,46,33.079V29.805A14.626,14.626,0,0,0,51,19a13.624,13.624,0,0,0-.786-4.526C53.953,12.233,54,9.139,54,9H52c0,.021-.085,1.994-2.59,3.612C46.475,6.962,39.78,3,32,3A21.337,21.337,0,0,0,21.18,5.862c-3.514-2.415-8.28-.882-8.494-.811A1,1,0,0,0,12.132,6.5L15.1,11.69A14.043,14.043,0,0,0,13.167,17H11a1,1,0,0,0-1,1v6a1,1,0,0,0,1,1h3.4A16.274,16.274,0,0,0,19,30.65v5.343a12.821,12.821,0,0,0-6.37,2.983l-.215.186L11.493,36.3a1,1,0,0,0-1.263-.644L2.689,38.127a1,1,0,0,0-.64,1.257L8.787,60.307A1,1,0,0,0,9.738,61a1.013,1.013,0,0,0,.312-.05l7.541-2.471a1,1,0,0,0,.64-1.257l-.644-2,2.843-.932a6.823,6.823,0,0,1,2.328-.335l12.542.057a10.844,10.844,0,0,0,7.164-2.491L60.926,36.11A3.018,3.018,0,0,0,61.316,31.887ZM15.967,23.609a1,1,0,0,0-.92-.609H12V19h2.061a1,1,0,0,0,1-.921A12.065,12.065,0,0,1,17.1,12.274a1,1,0,0,0,.036-1.051l-2.6-4.557c1.513-.262,4.113-.4,5.932,1.165a1,1,0,0,0,1.187.087A19.247,19.247,0,0,1,32,5c9.374,0,17,6.28,17,14a12.745,12.745,0,0,1-4.657,9.6,1,1,0,0,0-.343.753v3.7a5.482,5.482,0,0,0-2.1.813l-2.9,1.9V33.128a1,1,0,0,0-1.283-.959,20.209,20.209,0,0,1-10.482.26A1,1,0,0,0,26,33.4v3.433l-.172-.069A12.82,12.82,0,0,0,21,35.836V30.158a1,1,0,0,0-.4-.8A14.209,14.209,0,0,1,15.967,23.609ZM37,37.069l-2.694,1.76A2.939,2.939,0,0,1,31.6,39.1L28,37.642V34.635a22.181,22.181,0,0,0,9-.21ZM10.382,58.736,4.257,39.718,9.9,37.868l6.125,19.02ZM59.645,34.575,41.182,49.986a8.783,8.783,0,0,1-5.85,2.026l-12.543-.057a8.841,8.841,0,0,0-2.982.435l-2.833.928L13.082,41.231l.858-.744A10.779,10.779,0,0,1,25.079,38.62l5.772,2.33A4.943,4.943,0,0,0,35.4,40.5L43,35.54a3.536,3.536,0,0,1,4.789.882,1.01,1.01,0,0,1-.207,1.4L37.2,45.555a8.8,8.8,0,0,1-6.328,1.7L20.639,45.912l-.26,1.983,10.243,1.339a10.96,10.96,0,0,0,1.3.078,10.8,10.8,0,0,0,6.47-2.154L48.772,39.43a3,3,0,0,0,1.168-2.791l6.223-4.054a2.733,2.733,0,0,1,3.608.572A1.013,1.013,0,0,1,59.645,34.575Z"/><rect x="6.996" y="40.646" width="2" height="1.998" transform="matrix(0.952, -0.307, 0.307, 0.952, -12.389, 4.461)"/></g><text x="0" y="79" fill="#000000" font-size="5px" font-weight="bold" font-family="'Helvetica Neue', Helvetica, Arial-Unicode, Arial, Sans-serif">Created by Mavadee</text><text x="0" y="84" fill="#000000" font-size="5px" font-weight="bold" font-family="'Helvetica Neue', Helvetica, Arial-Unicode, Arial, Sans-serif">from the Noun Project</text></svg>