<svg xmlns="http://www.w3.org/2000/svg" width="24" height="24" viewBox="0 0 24 24">
  <g id="noun_Saving_3232569" transform="translate(-2 -3)">
    <g id="Group_248" data-name="Group 248" transform="translate(2 3)">
      <path id="Path_136" data-name="Path 136" d="M31.086,8.244l.28-.775a7.211,7.211,0,0,0-4.656-.149l.23.793a6.421,6.421,0,0,1,4.145.131Z" transform="translate(-16.826 -5.348)" fill="#4066ea"/>
      <ellipse id="Ellipse_26" data-name="Ellipse 26" cx="0.8" cy="0.828" rx="0.8" ry="0.828" transform="translate(7.2 4.138)" fill="#4066ea"/>
      <path id="Path_137" data-name="Path 137" d="M25.727,14.953a1.851,1.851,0,0,0-2.5-.4l-2.412,1.626a2.193,2.193,0,0,0-1.216-.728V14.091a6.141,6.141,0,0,0,2-4.471,5.812,5.812,0,0,0-.314-1.873A2.863,2.863,0,0,0,22.8,5.482H22a2.072,2.072,0,0,1-1.036,1.495A7.713,7.713,0,0,0,14,3,8.316,8.316,0,0,0,9.672,4.184a4.128,4.128,0,0,0-3.4-.336.406.406,0,0,0-.249.245.426.426,0,0,0,.027.354L7.24,6.6a5.939,5.939,0,0,0-.773,2.2H5.6a.407.407,0,0,0-.4.414v2.483a.407.407,0,0,0,.4.414H6.96A6.694,6.694,0,0,0,8.8,14.441v2.211a5.056,5.056,0,0,0-2.548,1.234l-.086.077L5.8,16.779a.41.41,0,0,0-.2-.242.388.388,0,0,0-.306-.025L2.276,17.535a.417.417,0,0,0-.256.52l2.7,8.658A.4.4,0,0,0,5.1,27a.393.393,0,0,0,.125-.021l3.016-1.022a.417.417,0,0,0,.256-.52l-.258-.828,1.137-.386a2.645,2.645,0,0,1,.931-.139l5.017.024a4.248,4.248,0,0,0,2.866-1.031L25.571,16.7a1.279,1.279,0,0,0,.156-1.747ZM7.587,11.528a.4.4,0,0,0-.368-.252H6V9.62h.824a.406.406,0,0,0,.4-.381,5.1,5.1,0,0,1,.816-2.4A.426.426,0,0,0,8.055,6.4L7.015,4.517A2.844,2.844,0,0,1,9.387,5a.39.39,0,0,0,.475.036A7.509,7.509,0,0,1,14,3.827c3.75,0,6.8,2.6,6.8,5.793a5.343,5.343,0,0,1-1.863,3.972.42.42,0,0,0-.137.312v1.531a2.15,2.15,0,0,0-.84.336l-1.16.786V15.466a.419.419,0,0,0-.16-.331.389.389,0,0,0-.353-.065,7.824,7.824,0,0,1-4.193.108.39.39,0,0,0-.341.077.419.419,0,0,0-.153.325V17l-.069-.029A4.979,4.979,0,0,0,9.6,16.587V14.237a.419.419,0,0,0-.16-.331A5.847,5.847,0,0,1,7.587,11.528ZM16,17.1l-1.078.728a1.142,1.142,0,0,1-1.082.112l-1.44-.6V16.09A8.583,8.583,0,0,0,16,16ZM5.353,26.063,2.9,18.193l2.257-.766L7.61,25.3Zm19.705-10-7.385,6.377a3.44,3.44,0,0,1-2.34.838l-5.017-.024a3.428,3.428,0,0,0-1.193.18l-1.133.384-1.557-5,.343-.308a4.2,4.2,0,0,1,4.456-.773l2.309.964a1.921,1.921,0,0,0,1.82-.186l3.04-2.052a1.384,1.384,0,0,1,1.916.365.428.428,0,0,1-.083.579l-4.153,3.2a3.434,3.434,0,0,1-2.531.7l-4.093-.556-.1.821,4.1.554a4.2,4.2,0,0,0,3.107-.859l4.153-3.2a1.261,1.261,0,0,0,.467-1.155l2.489-1.678a1.068,1.068,0,0,1,1.443.237.429.429,0,0,1-.05.587Z" transform="translate(-2 -3)" fill="#4066ea"/>
      <path id="Path_151" data-name="Path 151" d="M.391.224l.8-.008-.008.824-.8.008Z" transform="translate(1.459 15.634) rotate(-17.873)" fill="#4066ea"/>
    </g>
  </g>
</svg>
